<?xml version="1.0" encoding="UTF-8" standalone="no"?>
<svg
   xmlns:dc="http://purl.org/dc/elements/1.1/"
   xmlns:cc="http://creativecommons.org/ns#"
   xmlns:rdf="http://www.w3.org/1999/02/22-rdf-syntax-ns#"
   xmlns:svg="http://www.w3.org/2000/svg"
   xmlns="http://www.w3.org/2000/svg"
   xmlns:sodipodi="http://sodipodi.sourceforge.net/DTD/sodipodi-0.dtd"
   xmlns:inkscape="http://www.inkscape.org/namespaces/inkscape"
   width="195"
   height="195"
   viewBox="0 0 195 195"
   version="1.1"
   id="svg23"
   sodipodi:docname="rust-ipfs-logo.svg"
   inkscape:version="0.92.3 (2405546, 2018-03-11)">
  <metadata
     id="metadata29">
    <rdf:RDF>
      <cc:Work
         rdf:about="">
        <dc:format>image/svg+xml</dc:format>
        <dc:type
           rdf:resource="http://purl.org/dc/dcmitype/StillImage" />
        <dc:title>Untitled</dc:title>
      </cc:Work>
    </rdf:RDF>
  </metadata>
  <defs
     id="defs27" />
  <sodipodi:namedview
     pagecolor="#ffffff"
     bordercolor="#666666"
     borderopacity="1"
     objecttolerance="10"
     gridtolerance="10"
     guidetolerance="10"
     inkscape:pageopacity="0"
     inkscape:pageshadow="2"
     inkscape:window-width="1920"
     inkscape:window-height="1015"
     id="namedview25"
     showgrid="false"
     inkscape:zoom="1.2040816"
     inkscape:cx="-47.135593"
     inkscape:cy="98"
     inkscape:window-x="0"
     inkscape:window-y="0"
     inkscape:window-maximized="1"
     inkscape:current-layer="svg23" />
  <!-- Generator: Sketch 63.1 (92452) - https://sketch.com -->
  <title
     id="title2">Untitled</title>
  <desc
     id="desc4">Created with Sketch.</desc>
  <g
     id="Page-1"
     style="fill:none;fill-rule:evenodd;stroke:none;stroke-width:1"
     transform="translate(14,-1)">
    <g
       id="IPFS-logo-(new)"
       style="fill-rule:nonzero">
      <polygon
         id="Path"
         points="84.3,194.5 168.3,146 168.3,49 84.3,0.5 0.3,49 0.3,146 "
         style="fill:#469ea2" />
      <path
         d="m 75.7,12.1 -61,35.2 c 0.09999,1.097728 0.09999,2.202272 0,3.3 l 60.9,35.2 c 5.140467,-3.80057 12.159533,-3.80057 17.3,0 l 60.9,-35.2 c -0.1,-1.097728 -0.1,-2.202272 0,-3.3 L 93,12.1 c -5.140467,3.80057 -12.159533,3.80057 -17.3,0 z m 84,48.2 -61,35.6 c 0.678108,6.33353 -2.791626,12.38539 -8.6,15 l 0.1,70 c 0.986199,0.43498 1.924564,0.97119 2.8,1.6 l 60.9,-35.2 c -0.67811,-6.33353 2.79163,-12.38539 8.6,-15 V 61.9 c -0.97488,-0.457093 -1.91126,-0.992166 -2.8,-1.6 z M 8.9,60.7 c -0.8754357,0.628814 -1.813801,1.165022 -2.8,1.6 v 70.4 c 5.888216,2.52578 9.395106,8.64245 8.6,15 l 60.9,35.2 c 0.875436,-0.62881 1.813801,-1.16502 2.8,-1.6 v -70.4 c -5.888215,-2.52578 -9.395106,-8.64245 -8.6,-15 z"
         id="Shape"
         inkscape:connector-curvature="0"
         style="fill:#6acad1" />
      <path
         d="m 84.3,11 75.1,43.4 v 86.7 L 84.3,184.5 9.2,141.1 V 54.3 L 84.3,11 m 0,-10.3 -84,48.5 v 97 l 84,48.5 84,-48.5 v -97 z"
         id="path8"
         inkscape:connector-curvature="0"
         style="fill:#469ea2" />
      <path
         d="M 85.738083,142.00005 H 82.46202 C 71.085461,142.02901 60.166474,137.52256 52.122006,129.4781 44.077538,121.43363 39.571095,110.51464 39.600051,99.138083 V 95.86202 C 39.571095,84.485461 44.077538,73.566474 52.122006,65.522006 60.166474,57.477538 71.085461,52.971095 82.46202,53.000051 h 3.276063 c 11.376558,-0.02896 22.295547,4.477487 30.340017,12.521955 8.04446,8.044468 12.55091,18.963455 12.52195,30.340014 v 3.276063 c 0.029,11.376557 -4.47749,22.295547 -12.52195,30.340017 -8.04447,8.04446 -18.963459,12.55091 -30.340017,12.52195 z M 84.9,178.49993 H 83.7 C 78.019932,178.4829 72.776506,181.54475 70,186.5 l 14.3,8.2 14.3,-8.2 c -2.776506,-4.95525 -8.019932,-8.0171 -13.7,-8.00007 z m 83.5,-48.49998 h -0.6 c -4.16716,-0.0106 -8.16671,1.64007 -11.11334,4.58671 -2.94664,2.94663 -4.59732,6.94618 -4.58666,11.11334 v 1.2 c -0.0144,2.66527 0.67556,5.28705 2,7.6 l 14.3,-8.3 z M 154.1,41 c -1.31272,2.317736 -2.00182,4.936333 -2.00005,7.6 v 1.2 c -0.0106,4.167157 1.64007,8.166709 4.58671,11.113343 2.94663,2.946635 6.94618,4.597315 11.11334,4.586708 h 0.6 V 49.2 Z M 84.3,0.7 70,8.9 c 2.763108,4.981494 8.003542,8.079852 13.7,8.100071 h 1.2 C 90.580068,17.017103 95.823494,13.955248 98.6,9 Z M 14.6,40.9 0.3,49.2 V 65.500051 H 0.9 C 5.067157,65.510658 9.0667088,63.859978 12.013343,60.913343 14.959978,57.966709 16.610658,53.967157 16.600051,49.8 V 48.6 C 16.566117,45.909325 15.879814,43.267057 14.6,40.9 Z M 0.9,129.99995 H 0.3 V 146.2 l 14.3,8.3 c 1.312716,-2.31774 2.001821,-4.93633 2.000051,-7.6 v -1.2 c 0.01061,-4.16716 -1.640073,-8.16671 -4.586708,-11.11334 C 9.0667088,131.64002 5.067157,129.98934 0.9,129.99995 Z"
         id="path10"
         inkscape:connector-curvature="0"
         style="fill:#469ea2" />
      <polygon
         id="polygon12"
         points="84.3,98.1 0.3,49.6 0.3,146.7 84.3,195.2 "
         style="fill:#083b54;fill-opacity:0.15" />
      <polygon
         id="polygon14"
         points="168.4,48.8 84.4,97.3 84.4,194.4 168.4,145.8 "
         style="fill:#083b54;fill-opacity:0.05" />
    </g>
    <g
       id="rust-logo-blk"
       transform="translate(45,58)"
       style="fill:#79cdd4;fill-rule:nonzero">
      <path
         d="m 42.312118,72.651429 0.415906,0.445242 c -0.243934,0.02637 -0.488636,0.05018 -0.734076,0.0714 L 39,78 36.006052,73.168075 c -0.24544,-0.02123 -0.490142,-0.04504 -0.734076,-0.0714 l 0.415906,-0.445242 0.31817,0.516646 c 0.986626,0.08532 1.985201,0.128871 2.993948,0.128871 1.008747,0 2.007322,-0.04355 2.993948,-0.128871 z m 6.501281,-1.291035 0.499266,0.359014 c -0.236865,0.07458 -0.47484,0.146667 -0.713892,0.216218 l -1.990891,5.311271 -3.879858,-4.150226 c 2.014344,-0.217741 3.976397,-0.609892 5.870749,-1.161045 z m -19.626798,0 0.214626,0.575232 c 1.894352,0.551153 3.856405,0.943304 5.870749,1.161045 l -3.879858,4.150226 -1.990891,-5.311271 C 29.162175,71.866075 28.9242,71.793992 28.687335,71.719408 Z m 25.751527,-2.543645 0.562849,0.257112 c -0.219316,0.120591 -0.440093,0.238852 -0.662299,0.354751 l -0.914934,5.605083 -4.611079,-3.314287 c 1.920407,-0.604698 3.767913,-1.373798 5.526013,-2.290796 z m -31.876256,0 0.09945,0.611863 c 1.7581,0.916998 3.605606,1.686098 5.526013,2.290796 l -4.611079,3.314287 -0.914934,-5.605083 c -0.222206,-0.115899 -0.442983,-0.23416 -0.662299,-0.354751 z m 37.386207,-3.680986 0.595867,0.139691 c -0.189285,0.158969 -0.380313,0.31593 -0.57305,0.47085 l 0.20004,5.683253 -5.169959,-2.355696 c 1.756038,-0.965557 3.418379,-2.080444 4.969919,-3.327557 z m -42.896158,0 -0.02282,0.610541 c 1.55154,1.247113 3.213881,2.362 4.969919,3.327557 l -5.169959,2.355696 0.20004,-5.683253 c -0.192737,-0.15492 -0.383765,-0.311881 -0.57305,-0.47085 z m 47.583842,-4.687684 0.610541,0.02282 c -0.15492,0.192737 -0.311881,0.383765 -0.47085,0.57305 l 1.305039,5.536547 -5.536547,-1.305039 c 1.530153,-1.285079 2.946429,-2.701355 4.231508,-4.231508 z m -52.271526,0 -0.139691,0.595867 c 1.285079,1.530153 2.701355,2.946429 4.231508,4.231508 l -5.536547,1.305039 1.305039,-5.536547 c -0.158969,-0.189285 -0.31593,-0.380313 -0.47085,-0.57305 z m 58.56532,-43.119015 -2.355696,5.169959 c 0.120591,0.219316 0.238852,0.440093 0.354751,0.662299 l 5.605083,0.914934 -3.314287,4.611079 c 0.07458,0.236865 0.146667,0.47484 0.216218,0.713892 l 5.311271,1.990891 -4.150226,3.879858 c 0.02637,0.243934 0.05018,0.488636 0.0714,0.734076 L 78,39 73.168075,41.993948 c -0.02123,0.24544 -0.04504,0.490142 -0.0714,0.734076 l 4.150226,3.879858 -5.311271,1.990891 c -0.06955,0.239052 -0.141634,0.477027 -0.216218,0.713892 l 3.314287,4.611079 -5.605083,0.914934 c -0.115899,0.222206 -0.23416,0.442983 -0.354751,0.662299 l 2.355696,5.169959 -5.683253,-0.20004 c 1.247113,-1.55154 2.362,-3.213881 3.327557,-4.969919 l -0.257112,-0.562849 0.611863,-0.09945 c 0.916998,-1.7581 1.686098,-3.605606 2.290796,-5.526013 l -0.359014,-0.499266 0.575232,-0.214626 c 0.551153,-1.894352 0.943304,-3.856405 1.161045,-5.870749 l -0.445242,-0.415906 0.516646,-0.31817 C 73.253396,41.007322 73.296946,40.008747 73.296946,39 c 0,-1.008747 -0.04355,-2.007322 -0.128871,-2.993948 l -0.516646,-0.31817 0.445242,-0.415906 C 72.87893,33.257632 72.486779,31.295579 71.935626,29.401227 l -0.575232,-0.214626 0.359014,-0.499266 C 71.11471,26.766928 70.34561,24.919422 69.428612,23.161322 l -0.611863,-0.09945 0.257112,-0.562849 c -0.965557,-1.756038 -2.080444,-3.418379 -3.327557,-4.969919 z m -64.8591137,0 5.6832527,0.20004 c -1.247113,1.55154 -2.3619995,3.213881 -3.3275569,4.969919 l 0.2571121,0.562849 -0.6118632,0.09945 c -0.916998,1.7581 -1.6860976,3.605606 -2.2907959,5.526013 l 0.3590138,0.499266 -0.5752324,0.214626 C 5.513221,31.295579 5.1210698,33.257632 4.9033293,35.271976 l 0.4452421,0.415906 -0.5167323,0.31917 C 4.7465744,36.993353 4.7030542,37.991594 4.7030542,39 c 0,1.008747 0.04355,2.007322 0.1288713,2.993948 l 0.5166459,0.31817 -0.4452421,0.415906 c 0.2177405,2.014344 0.6098917,3.976397 1.1610442,5.870749 l 0.5752324,0.214626 -0.3590138,0.499266 c 0.6046983,1.920407 1.3737979,3.767913 2.2907959,5.526013 l 0.6118632,0.09945 -0.2571121,0.562849 c 0.9655574,1.756038 2.0804439,3.418379 3.3275569,4.969919 l -5.6832527,0.20004 2.3556958,-5.169959 C 8.8055483,55.281661 8.6872869,55.060884 8.571388,54.838678 L 2.9663054,53.923744 6.2805921,49.312665 C 6.2060079,49.0758 6.1339247,48.837825 6.0643735,48.598773 L 0.75310345,46.607882 4.9033293,42.728024 C 4.8769612,42.48409 4.8531508,42.239388 4.8319255,41.993948 L 0,39 4.8318391,36.007052 c 0.021247,-0.245776 0.045086,-0.490811 0.07149,-0.735076 L 0.75310345,31.392118 6.0643735,29.401227 C 6.1339247,29.162175 6.2060079,28.9242 6.2805921,28.687335 L 2.9663054,24.076256 8.571388,23.161322 c 0.1158989,-0.222206 0.2341603,-0.442983 0.3547511,-0.662299 z m 60.0100497,-5.909557 -1.305039,5.536547 c 0.158969,0.189285 0.31593,0.380313 0.47085,0.57305 l -0.610541,0.02282 0.139691,-0.595867 c -1.285079,-1.530153 -2.701355,-2.946429 -4.231508,-4.231508 z m -55.160986,0 5.536547,1.305039 c -1.530153,1.285079 -2.946429,2.701355 -4.231508,4.231508 l 0.139691,0.595867 -0.610541,-0.02282 c 0.15492,-0.192737 0.311881,-0.383765 0.47085,-0.57305 z m 49.251429,-4.8490637 -0.20004,5.6832527 c 0.192737,0.15492 0.383765,0.311881 0.57305,0.47085 l -0.595867,0.139691 0.02282,-0.610541 C 58.919356,11.006583 57.257015,9.8916965 55.500977,8.9261391 Z m -43.341872,0 5.169959,2.3556958 c -1.756038,0.9655574 -3.418379,2.0804439 -4.969919,3.3275569 l 0.02282,0.610541 -0.595867,-0.139691 c 0.189285,-0.158969 0.380313,-0.31593 0.57305,-0.47085 z m 36.59468,-3.6041379 0.914934,5.6050826 c 0.222206,0.1158989 0.442983,0.2341603 0.662299,0.3547511 L 54.938128,9.1832512 54.838678,8.571388 C 53.080578,7.65439 51.233072,6.8852904 49.312665,6.2805921 Z m -29.847488,0 4.611079,3.3142867 C 26.766928,6.8852904 24.919422,7.65439 23.161322,8.571388 L 23.061872,9.1832512 22.499023,8.9261391 C 22.718339,8.8055483 22.939116,8.6872869 23.161322,8.571388 Z M 46.607882,0.75310345 48.598773,6.0643735 c 0.239052,0.069551 0.477027,0.1416344 0.713892,0.2162186 L 48.813399,6.6396059 48.598773,6.0643735 C 46.704421,5.513221 44.742368,5.1210698 42.728024,4.9033293 Z m -15.215764,0 3.879858,4.15022585 C 33.257632,5.1210698 31.295579,5.513221 29.401227,6.0643735 L 29.186601,6.6396059 28.687335,6.2805921 C 28.9242,6.2060079 29.162175,6.1339247 29.401227,6.0643735 Z M 39,0 41.993948,4.8319255 c 0.24544,0.021225 0.490142,0.045036 0.734076,0.071404 L 42.312118,5.3485714 41.993948,4.8319255 C 41.007322,4.7466038 40.008747,4.7030542 39,4.7030542 c -1.008406,0 -2.006647,0.04352 -2.992948,0.1287849 l -0.31917,0.5167323 -0.415906,-0.4452421 c 0.244265,-0.026404 0.4893,-0.050243 0.735076,-0.07149 z"
         id="path17"
         inkscape:connector-curvature="0"
         style="stroke:#79cdd4;stroke-width:2;stroke-linecap:round;stroke-linejoin:round" />
      <path
         d="M 39,3 C 19.153163,3 3,19.160778 3,39 3,58.839221 19.160778,75 39,75 58.839221,75 75,58.839221 75,39 75,19.160778 58.839221,3 39,3 Z m -0.05331,3.1986461 c 1.280039,0.033151 2.300406,1.0839261 2.299979,2.3685212 0,1.3080982 -1.060423,2.3685217 -2.368521,2.3685217 -1.308098,0 -2.368522,-1.0604235 -2.368522,-2.3685217 -2.68e-4,-0.6402289 0.258659,-1.2532965 0.71778,-1.6995044 0.459121,-0.4462079 1.079323,-0.6875444 1.719284,-0.6690168 z m 5.422467,3.8993019 c 8.415655,1.57628 15.712536,6.773219 19.953459,14.211127 l -2.795008,6.305903 c -0.479797,1.089063 0.01523,2.368521 1.096679,2.855934 l 5.376772,2.383753 c 0.166789,1.680686 0.187175,3.37269 0.06093,5.056907 h -2.993018 c -0.297018,0 -0.418871,0.198011 -0.418871,0.487413 v 1.370848 c 0,3.229109 -1.820182,3.937381 -3.419505,4.112545 -1.523165,0.175164 -3.206262,-0.639729 -3.419505,-1.56886 -0.898667,-5.049291 -2.391369,-6.123122 -4.752274,-7.988999 2.932092,-1.858261 5.978422,-4.607574 5.978422,-8.278401 0,-3.967844 -2.718849,-6.465835 -4.569494,-7.691982 -2.604612,-1.713561 -5.483394,-2.056273 -6.260208,-2.056273 h -30.92025 c 4.275532,-4.776335 10.006484,-8.009867 16.305479,-9.199915 l 3.64798,3.823144 c 0.822509,0.860588 2.185741,0.898667 3.046329,0.06854 z M 10.707214,27.629575 c 1.281255,0.03709 2.300516,1.086729 2.299979,2.368521 0,1.308098 -1.060423,2.368521 -2.368522,2.368521 -1.3080977,0 -2.368521,-1.060423 -2.368521,-2.368521 -2.679e-4,-0.640229 0.2586588,-1.253297 0.7177795,-1.699504 0.4591206,-0.446208 1.0793235,-0.687545 1.7192845,-0.669017 z m 56.471335,0.106621 c 1.281255,0.03709 2.300515,1.08673 2.299979,2.368522 0,1.308098 -1.060424,2.368521 -2.368522,2.368521 -1.308098,0 -2.368521,-1.060423 -2.368521,-2.368521 -2.68e-4,-0.640229 0.258659,-1.253297 0.717779,-1.699505 0.459121,-0.446208 1.079324,-0.687544 1.719285,-0.669017 z m -52.008462,0.380791 h 4.127776 V 46.730061 H 10.966152 C 9.9371623,43.116688 9.6164904,39.338449 10.02179,35.603342 l 5.102602,-2.269515 c 1.089063,-0.487413 1.584091,-1.759255 1.096678,-2.848318 z m 17.226994,0.198012 h 9.832028 c 0.510261,0 3.587053,0.586418 3.587053,2.894013 0,1.911572 -2.360905,2.596996 -4.30294,2.596996 h -9.123757 z m 0,13.373387 h 7.532049 c 0.685425,0 3.678443,0.198011 4.630421,4.021155 0.297018,1.172837 0.959594,4.995981 1.408928,6.222128 0.449334,1.370848 2.269515,4.112545 4.211551,4.112545 h 12.291939 c -0.823786,1.103202 -1.724709,2.146644 -2.696001,3.122488 l -5.003597,-1.073831 c -1.165221,-0.251322 -2.31521,0.495028 -2.566532,1.660249 l -1.188069,5.54432 c -7.730945,3.502094 -16.604414,3.460383 -24.302094,-0.114237 l -1.188069,-5.54432 c -0.251322,-1.165221 -1.393695,-1.911572 -2.558917,-1.66025 l -4.896974,1.050984 c -0.908731,-0.937381 -1.753451,-1.934762 -2.528454,-2.985403 h 23.814682 c 0.266554,0 0.449333,-0.04569 0.449333,-0.297017 v -8.423101 c 0,-0.243707 -0.182779,-0.297017 -0.449333,-0.297017 H 32.389465 Z M 21.407447,60.979268 c 1.281254,0.03709 2.300515,1.08673 2.299979,2.368521 0,1.308098 -1.060424,2.368522 -2.368522,2.368522 -1.308098,0 -2.368521,-1.060424 -2.368521,-2.368522 -2.68e-4,-0.640229 0.258658,-1.253296 0.717779,-1.699504 0.459121,-0.446208 1.079324,-0.687545 1.719285,-0.669017 z m 35.070869,0.106622 c 1.281255,0.03709 2.300516,1.086729 2.299979,2.368521 0,1.308098 -1.060423,2.368521 -2.368521,2.368521 -1.308099,0 -2.368522,-1.060423 -2.368522,-2.368521 -2.68e-4,-0.640229 0.258659,-1.253297 0.71778,-1.699505 0.45912,-0.446208 1.079323,-0.687544 1.719284,-0.669016 z"
         id="path19"
         inkscape:connector-curvature="0" />
    </g>
  </g>
</svg>
